<svg width="93" height="96" viewBox="0 0 93 96" fill="none" xmlns="http://www.w3.org/2000/svg">
<g clip-path="url(#clip0_222_3)">
<path d="M46.1811 0.818099L92.3622 43.1811L92.1804 43.7266H79.2715V52.9992H70.7262L68.5954 47.73C60.5639 27.8691 32.6519 27.3003 23.8178 46.8174V47.9083L27.2723 48.0901L29.5338 47.9162C31.1726 47.7901 32.7922 47.4826 34.3631 46.9993H36.1813V46.4538H34.7267L34.5347 44.5338C34.4344 43.5302 35.0426 42.591 35.9994 42.272H49.2336C50.0527 42.272 50.8176 42.6814 51.2719 43.3629L51.0901 44.0902H40.5448L39.8176 46.272L37.8176 46.8174L42.9084 48.0901C46.1498 48.7608 48.7509 51.1755 49.6603 54.3582L50.3629 56.8173H43.8175L44.3629 55.181L43.4539 54.0901C42.7853 53.4215 41.7964 53.188 40.8994 53.487L39.0903 54.0901L37.6944 54.2064C35.7327 54.3699 33.7577 54.1711 31.8679 53.6199C30.8698 53.3288 29.8354 53.181 28.7957 53.181H13.2725V43.9084H0.181815L0 43.1811L46.1811 0.818099Z" fill="white"/>
<path d="M46.1811 0.818099L92.3622 43.1811L92.1804 43.7266H79.2715V52.9992H70.7262L68.5954 47.73C60.5639 27.8691 32.6519 27.3003 23.8178 46.8174V47.9083L27.2723 48.0901L29.5338 47.9162C31.1726 47.7901 32.7922 47.4826 34.3631 46.9993H36.1813V46.4538H34.7267L34.5347 44.5338C34.4344 43.5302 35.0426 42.591 35.9994 42.272H49.2336C50.0527 42.272 50.8176 42.6814 51.2719 43.3629L51.0901 44.0902H40.5448L39.8176 46.272L37.8176 46.8174L42.9084 48.0901C46.1498 48.7608 48.7509 51.1755 49.6603 54.3582L50.3629 56.8173H43.8175L44.3629 55.181L43.4539 54.0901C42.7853 53.4215 41.7964 53.188 40.8994 53.487L39.0903 54.0901L37.6944 54.2064C35.7327 54.3699 33.7577 54.1711 31.8679 53.6199C30.8698 53.3288 29.8354 53.181 28.7957 53.181H13.2725V43.9084H0.181815L0 43.1811L46.1811 0.818099Z" stroke="black"/>
<path d="M8.18054 57.7278L8.72599 57.1824H21.2712L22.1784 61.9299C24.6975 75.1133 37.3606 83.8112 50.5698 81.4311V81.4311C60.525 79.6374 68.3524 71.9063 70.2691 61.9739L71.0886 57.7278L71.4522 57.1824H83.6338L84.1793 57.7278V61.0005L79.0884 63.1823L73.8158 76.0911L75.8158 81.182L70.1795 86.8182L65.0887 84.6365L52.1798 90.0909L50.1798 94.9999H42.18L39.9982 90.0909L27.0893 84.8183L22.1803 86.8182L16.544 81.182L18.544 76.0911L13.2714 63.1823L8.18054 61.1823V57.7278Z" fill="white"/>
<path d="M64.2878 64.2987L63.7908 65.6406C63.2317 67.15 62.3879 68.538 61.3052 69.729C52.0644 79.8937 35.5192 77.718 29.2206 65.5097L29.0364 65.1526C28.5198 64.1512 28.2133 63.0548 28.1358 61.9307L28.0734 61.0264L31.5114 64.1087L31.5439 64.1379L31.5789 64.1642C36.3988 67.7791 42.6764 68.822 48.4062 66.9598L53.0046 65.4654C53.8145 65.2021 54.646 65.0108 55.4895 64.8937L60.6112 64.1823H62.6791C63.2179 64.1823 63.7555 64.2213 64.2878 64.2987Z" stroke="white" stroke-width="2"/>
<path d="M44 76V76C47.3114 74.6754 50.3862 72.8227 53.1046 70.5139L53.8198 69.9065V69.9065C56.3476 67.8601 59.1978 66.2478 62.254 65.1355L64 64.5" stroke="white" stroke-width="2" stroke-linecap="round"/>
</g>
<defs>
<clipPath id="clip0_222_3">
<rect width="93" height="96" fill="white"/>
</clipPath>
</defs>
</svg>
