<svg width="200" height="200" viewBox="0 0 200 200" fill="none" xmlns="http://www.w3.org/2000/svg">
<g clip-path="url(#clip0_225_32)">
<rect width="200" height="200" fill="white"/>
<path d="M71.3142 80.5543L71.3141 80.5539L71.314 80.5537L71.0474 79.9012L70.4784 79.484L64.613 75.1827C64.2276 74.9001 64 74.4509 64 73.973V62.7325L66.3778 61.8408L68 61.2325V59.5V43.3195L76.6372 40.5291C90.5573 36.0318 105.522 35.9125 119.512 40.1872L131.552 43.8662L132.001 59.5714L132.042 60.9942L133.286 61.6854L136.243 63.3281C136.402 63.4163 136.5 63.5836 136.5 63.7652V72.6301C136.5 72.7751 136.437 72.913 136.327 73.008L129.863 78.6108L129.555 78.8775L129.348 79.2282L123.081 89.8326C119.143 96.498 112.601 101.218 105.034 102.854C101.636 103.588 98.2354 103.695 95.0437 102.897C90.6261 101.792 85.1251 99.9874 82.0574 97.5444C79.4161 95.4409 76.742 91.3459 74.644 87.4741C73.6235 85.5908 72.7869 83.8516 72.2056 82.583C71.9154 81.9497 71.69 81.4363 71.5383 81.084C71.4625 80.9079 71.4051 80.7722 71.3674 80.6822L71.3257 80.5821L71.3161 80.5589L71.3142 80.5543L71.3142 80.5543Z" fill="white" stroke="black" stroke-width="5"/>
<path d="M81.6557 7.78803L96.9483 3.96486C99.2763 3.38288 101.712 3.38773 104.038 3.97899L119.681 7.95594C124.788 9.2545 128.789 13.2221 130.13 18.3187L132.561 27.5548L134.831 39.3595L132.777 42H69.4393L67.1289 39.9784L68.7405 25.4736C68.8788 24.2293 69.1776 23.0081 69.6296 21.8405L71.6502 16.6207C73.3516 12.2253 77.0832 8.93114 81.6557 7.78803Z" fill="white" stroke="black" stroke-width="5"/>
<path d="M131.985 39.5378L135 41.0451V45.6422L132.834 48.4271L120.124 47.6794C118.324 47.5736 116.541 47.274 114.806 46.786C105.784 44.2484 96.255 44.1093 87.1623 46.3825L84.9623 46.9325C83.4057 47.3216 81.8159 47.5636 80.214 47.6551L67.6341 48.374L66.7155 42.2505C86.5213 30.1943 111.179 29.1348 131.985 39.5378Z" fill="white" stroke="black" stroke-width="5"/>
<path d="M21 182L27.4167 150.273C29.0645 142.125 34.019 135.027 41.0984 130.67L56 121.5M74 115L56 121.5M74 115L76.9999 141.5L123 141.5L125.5 115.5M74 115L83.5 113L99.4999 125.5L117 113L125.5 115.5M56 121.5L59.5708 144.873C60.8225 153.066 59.3613 161.443 55.4099 168.729L47.0567 184.13C46.0264 186.029 45.3278 188.091 44.9908 190.225L44 196.5M125.5 115.5L144.5 122M144.5 122L141.422 141.864C139.849 152.019 141.576 162.411 146.35 171.511L153.184 184.539C154.381 186.82 155.074 189.331 155.217 191.902L155.5 197M144.5 122L153.007 126.337C163.729 131.803 171.327 141.913 173.595 153.732L179.5 184.5" stroke="black" stroke-width="5"/>
<path d="M104.577 197.267L98.5 188L84 187L76 174.5L81 164L88 173L99.5 173L101 162.5L96.5 154L107.5 153.5L115 165L112.5 181.5L124 197.5" stroke="black" stroke-width="5" stroke-linecap="round"/>
<line x1="101" y1="19" x2="101" y2="35" stroke="black" stroke-width="4"/>
</g>
<defs>
<clipPath id="clip0_225_32">
<rect width="200" height="200" fill="white"/>
</clipPath>
</defs>
</svg>
