<svg width="200" height="200" viewBox="0 0 200 200" fill="none" xmlns="http://www.w3.org/2000/svg">
<g clip-path="url(#clip0_225_29)">
<rect width="200" height="200" fill="white"/>
<path d="M15.5 8.5H32C32.8284 8.5 33.5 9.17157 33.5 10V50C33.5 50.8284 32.8284 51.5 32 51.5H15.5V8.5Z" stroke="black" stroke-width="5"/>
<path d="M36 11.5H33.5V14V46V48.5H36H67.4485C72.0144 50.7143 75.1972 55.0579 75.918 60.1034L76.0251 60.8536L76.3318 63H78.5H112H114.67L114.495 60.3359C112.942 36.7319 95.9217 17.0209 72.796 12.0444L71.8876 11.849C70.8095 11.617 69.7099 11.5 68.6072 11.5H36Z" stroke="black" stroke-width="5"/>
<path d="M75 63H115C116.381 63 117.5 64.1193 117.5 65.5V89C117.5 90.3807 116.381 91.5 115 91.5H75C73.6193 91.5 72.5 90.3807 72.5 89V65.5C72.5 64.1193 73.6193 63 75 63Z" stroke="black" stroke-width="5"/>
<path d="M79.5 103.767V91.5H108.606L109.347 108.525C109.469 111.337 110.382 114.057 111.982 116.372C120.332 128.457 138.8 126.275 144.103 112.576L144.988 110.29C145.325 109.42 145.5 108.496 145.506 107.563L145.985 26.5H173.986L173.524 111.61C173.51 114.207 173.032 116.781 172.114 119.21C161.18 148.141 125.857 159.285 99.9778 142.238C94.1028 138.368 89.3119 132.953 86.2216 126.644L83.5265 121.141C80.8773 115.733 79.5 109.79 79.5 103.767Z" stroke="black" stroke-width="5"/>
<path d="M137.5 8.5H181.5V23C181.5 24.933 179.933 26.5 178 26.5H141C139.067 26.5 137.5 24.933 137.5 23V8.5Z" stroke="black" stroke-width="5"/>
<path d="M109.22 115.576L129.986 156.379C137.693 171.523 131.52 190.046 116.268 197.538V197.538C111.816 199.725 106.573 199.741 102.093 197.612V197.612C85.8485 189.889 79.3047 170.013 87.9676 154.249L109.22 115.576Z" fill="white"/>
<path d="M94.2755 163.894L109.415 136.345L124.288 165.569C129.972 176.737 125.419 190.395 114.173 195.919C111.216 197.372 107.721 197.386 104.733 195.966C92.7045 190.247 87.878 175.536 94.2755 163.894Z" fill="#D9D9D9" fill-opacity="0.5" stroke="black" stroke-width="5"/>
</g>
<defs>
<clipPath id="clip0_225_29">
<rect width="200" height="200" fill="white"/>
</clipPath>
</defs>
</svg>
